
<svg version="1.0" 
xmlns="http://www.w3.org/2000/svg"
width="900.000000pt" 
height="900.000000pt" 
viewBox="0 0 900.000000 900.000000"
preserveAspectRatio="xMidYMid meet">
<g 
transform="translate(0.000000,900.000000) scale(0.100000,-0.100000)"
fill="#000" 
stroke="#000"
stroke-width="200"
>

<path d="M3840 8939 c-55 -9 -167 -28 -235 -39 -88 -13 -203 -41 -316 -76 -26
-8 -54 -14 -63 -14 -8 0 -30 -6 -48 -14 -18 -7 -62 -23 -98 -34 -36 -12 -90
-30 -120 -42 -30 -12 -64 -24 -75 -27 -11 -3 -35 -11 -53 -19 -17 -8 -49 -21
-70 -30 -68 -29 -96 -42 -177 -79 -44 -21 -93 -44 -110 -51 -16 -8 -37 -18
-45 -23 -8 -5 -22 -12 -30 -15 -8 -4 -31 -16 -50 -27 -19 -12 -55 -32 -80 -46
-25 -13 -58 -33 -75 -44 -16 -10 -37 -22 -45 -26 -8 -5 -68 -44 -134 -88 -65
-44 -126 -84 -134 -90 -18 -11 -143 -106 -212 -161 -240 -190 -523 -475 -690
-694 -19 -25 -40 -49 -46 -55 -19 -17 -157 -209 -189 -263 -6 -9 -35 -55 -65
-102 -67 -104 -73 -114 -103 -170 -14 -25 -34 -61 -46 -80 -11 -19 -23 -42
-27 -50 -3 -8 -9 -22 -14 -30 -23 -41 -102 -208 -126 -265 -21 -52 -46 -109
-60 -138 -8 -16 -14 -36 -14 -46 0 -9 -4 -21 -9 -27 -5 -5 -14 -25 -19 -44 -6
-19 -20 -60 -32 -90 -12 -30 -26 -71 -30 -90 -4 -19 -13 -48 -18 -65 -10 -28
-18 -56 -56 -197 -27 -101 -42 -173 -66 -333 -6 -38 -15 -95 -20 -126 -13 -72
-13 -466 -1 -474 6 -3 13 11 17 32 3 21 12 57 20 80 15 47 41 161 53 238 61
367 78 448 161 733 147 511 444 1078 779 1489 170 208 297 342 491 517 248
224 541 431 855 602 197 108 530 248 755 318 209 65 546 138 815 177 68 10
249 53 290 70 11 4 32 10 48 13 15 4 27 11 27 16 0 12 -443 11 -510 -1z"/>
<path d="M4630 8941 c0 -6 12 -13 28 -17 15 -3 36 -9 47 -13 41 -17 222 -60
290 -70 95 -14 350 -58 405 -70 136 -29 410 -105 510 -141 63 -23 138 -50 165
-60 146 -52 477 -213 636 -307 214 -128 237 -143 447 -301 270 -203 643 -578
827 -832 22 -30 50 -68 62 -85 285 -395 527 -892 651 -1340 64 -230 78 -292
122 -551 35 -208 58 -317 101 -476 21 -82 29 -35 29 179 0 119 -4 242 -9 272
-10 59 -27 161 -41 246 -25 156 -112 469 -180 645 -12 30 -24 64 -27 75 -3 11
-12 36 -20 55 -9 19 -21 49 -28 65 -6 17 -19 46 -28 65 -43 93 -100 217 -108
235 -5 11 -13 27 -18 35 -5 8 -12 22 -15 30 -4 8 -16 31 -27 50 -12 19 -32 55
-46 80 -13 25 -33 59 -44 75 -10 17 -22 37 -26 45 -4 8 -43 68 -88 133 -44 65
-84 126 -90 135 -25 41 -174 231 -248 317 -82 94 -278 305 -292 313 -7 4 -49
41 -92 82 -88 83 -96 89 -202 175 -132 108 -260 202 -339 250 -9 6 -56 36
-104 68 -48 31 -89 57 -92 57 -5 0 -146 80 -176 100 -8 6 -22 13 -30 16 -8 3
-22 9 -30 14 -21 12 -159 79 -195 95 -16 7 -47 20 -67 29 -21 9 -55 24 -75 33
-21 9 -50 22 -65 30 -14 7 -35 13 -46 13 -12 0 -23 4 -27 9 -3 5 -20 13 -37
17 -18 3 -39 10 -48 15 -21 12 -98 39 -140 49 -19 4 -48 13 -65 18 -31 11
-112 34 -200 57 -27 8 -86 21 -130 30 -44 9 -102 21 -130 27 -95 22 -201 30
-447 34 -169 4 -248 2 -248 -5z"/>
<path d="M4265 7316 c-5 -2 -35 -11 -66 -20 -125 -37 -224 -161 -223 -277 1
-99 62 -186 221 -316 99 -82 178 -270 204 -485 17 -146 9 -2313 -9 -2330 -15
-15 -16 -13 -100 102 -26 35 -87 105 -137 155 -75 75 -107 99 -190 141 -155
80 -273 108 -440 107 -96 0 -140 -6 -220 -27 -285 -76 -528 -279 -665 -556
-74 -148 -100 -274 -100 -483 0 -168 14 -299 45 -433 25 -106 79 -279 93 -298
5 -6 16 -32 26 -58 21 -58 126 -224 199 -316 69 -86 203 -210 305 -280 181
-126 497 -245 682 -257 19 -2 87 -8 150 -15 108 -11 339 -8 465 6 102 12 343
65 440 98 175 59 346 154 496 274 249 200 439 514 519 857 57 244 55 201 52
1445 -3 935 -1 1209 13 1494 18 395 25 467 62 586 41 132 75 192 140 247 151
126 205 205 204 301 0 78 -28 135 -98 203 -66 64 -82 74 -145 88 -24 6 -364
17 -754 25 -390 8 -810 17 -934 20 -124 3 -229 4 -235 2z m905 -136 c118 -5
400 -12 625 -16 404 -7 411 -8 446 -30 56 -35 79 -80 79 -155 0 -57 -3 -69
-31 -102 -17 -21 -50 -47 -72 -59 -68 -34 -112 -74 -156 -141 -22 -35 -41 -68
-41 -74 0 -6 -6 -24 -14 -40 -37 -72 -72 -245 -87 -428 -19 -238 -27 -908 -21
-1913 5 -875 4 -975 -12 -1085 -9 -67 -24 -145 -32 -173 -8 -28 -14 -62 -14
-75 -1 -13 -7 -35 -15 -49 -8 -14 -15 -36 -15 -50 0 -14 -7 -34 -15 -44 -8
-11 -15 -26 -15 -33 0 -20 -102 -225 -133 -267 -179 -247 -304 -357 -537 -471
-139 -68 -146 -70 -396 -141 -28 -8 -66 -14 -85 -14 -19 -1 -63 -7 -99 -15
-46 -10 -136 -14 -310 -15 -240 0 -298 5 -450 42 -25 6 -61 14 -80 18 -89 20
-275 99 -355 150 -16 11 -37 23 -45 27 -68 31 -269 219 -329 307 -41 62 -75
110 -81 116 -9 8 -86 171 -108 225 -76 194 -102 343 -109 610 -5 218 4 301 45
395 23 55 40 94 46 110 14 35 103 158 155 214 80 85 223 178 356 229 156 60
392 58 555 -5 145 -56 275 -157 366 -284 49 -69 124 -229 124 -267 0 -12 7
-44 15 -71 20 -67 20 -259 0 -316 -8 -23 -15 -55 -15 -69 0 -15 -7 -36 -15
-47 -8 -10 -15 -26 -15 -35 0 -9 -11 -36 -25 -60 -14 -24 -28 -51 -32 -59 -11
-26 -95 -133 -132 -170 -43 -42 -116 -100 -127 -100 -4 0 -15 -6 -23 -14 -9
-7 -37 -21 -63 -31 -27 -10 -48 -23 -48 -29 0 -22 142 -76 198 -76 17 0 54 -5
82 -11 88 -19 209 11 266 66 52 49 98 147 114 245 5 30 14 75 19 100 5 26 11
724 13 1660 2 1315 1 1621 -10 1650 -7 19 -17 58 -22 85 -13 79 -60 199 -115
294 -31 54 -110 130 -160 155 -72 37 -111 78 -124 132 -17 67 1 119 57 172
l46 42 381 0 c209 -1 477 -5 595 -10z m-800 -4225 c0 -106 -90 -235 -164 -235
-47 0 -48 23 -1 81 20 24 61 77 91 117 31 39 60 72 65 72 5 0 9 -16 9 -35z"/>
<path d="M4286 7032 c-12 -19 6 -41 49 -62 51 -25 128 -97 173 -161 40 -59
102 -177 102 -196 0 -8 6 -27 14 -41 34 -67 66 -219 76 -372 5 -63 7 -797 4
-1630 -5 -1594 -5 -1603 -50 -1754 -8 -26 -14 -52 -14 -57 0 -4 -16 -42 -36
-84 -54 -114 -141 -195 -259 -241 -71 -27 -310 -27 -405 0 -168 48 -293 134
-390 269 -18 26 -37 47 -42 47 -4 0 -8 9 -8 19 0 20 32 37 49 27 12 -8 129 12
176 31 164 62 300 183 367 323 47 100 60 155 65 280 5 125 -7 189 -62 320 -43
105 -167 231 -278 283 -220 103 -400 90 -662 -50 -37 -20 -177 -159 -196 -195
-111 -210 -119 -240 -119 -474 0 -104 5 -209 11 -234 6 -25 15 -70 19 -100 28
-184 143 -436 266 -581 147 -173 393 -330 582 -370 24 -5 49 -12 55 -16 6 -4
34 -10 62 -15 27 -4 70 -12 95 -17 73 -16 517 -13 602 3 259 51 258 51 373 94
250 94 457 255 586 457 68 107 126 230 154 330 9 33 23 80 31 105 8 25 14 59
14 75 0 17 7 63 15 102 13 63 15 247 13 1370 -1 1132 1 1328 16 1533 16 232
33 351 61 441 8 26 15 54 15 63 0 23 56 147 91 201 10 17 22 37 25 45 21 46
153 150 191 150 7 0 13 9 13 21 0 20 -3 20 -137 14 -76 -4 -262 -2 -413 4
-151 6 -464 14 -695 17 -383 5 -534 13 -577 29 -9 4 -19 2 -22 -3z m1011 -162
c260 -5 477 -11 483 -15 17 -11 11 -54 -16 -108 -67 -130 -126 -371 -139 -557
-27 -402 -30 -559 -27 -1718 2 -834 -1 -1239 -8 -1295 -33 -244 -119 -475
-232 -622 -59 -76 -168 -182 -234 -228 -48 -33 -167 -96 -244 -130 -58 -26
-208 -64 -325 -83 -84 -14 -164 -19 -340 -19 -201 0 -244 3 -345 23 -142 29
-209 52 -325 110 -115 57 -217 134 -294 221 -60 68 -161 224 -176 272 -4 13
-15 42 -25 64 -19 42 -49 143 -72 235 -9 37 -13 126 -13 275 0 187 3 227 18
270 75 208 248 359 448 394 301 52 539 -109 595 -402 28 -144 0 -291 -74 -402
-78 -116 -178 -186 -330 -231 -100 -30 -153 -68 -188 -135 -21 -41 -9 -84 46
-167 91 -136 263 -259 420 -300 108 -29 244 -45 306 -38 121 14 233 54 305
109 174 131 269 334 298 642 17 178 27 2978 12 3140 -24 236 -68 411 -147 573
-46 94 -50 127 -16 135 9 2 51 2 92 0 41 -2 288 -8 547 -13z"/>
<path d="M8920 4298 c-6 -24 -16 -59 -21 -78 -21 -71 -41 -170 -75 -370 -51
-292 -50 -285 -77 -390 -66 -249 -109 -394 -147 -490 -85 -214 -147 -353 -210
-474 -68 -130 -211 -369 -284 -475 -28 -40 -61 -89 -74 -107 -64 -96 -222
-285 -369 -441 -153 -164 -354 -341 -594 -522 -224 -170 -682 -423 -949 -525
-134 -51 -357 -126 -450 -151 -36 -9 -76 -21 -90 -25 -53 -18 -240 -59 -355
-79 -351 -59 -416 -73 -515 -104 -50 -17 -70 -27 -59 -31 24 -10 451 -1 548
12 81 11 134 21 231 44 25 6 65 14 90 18 25 3 61 11 80 17 19 6 62 19 95 28
33 9 74 21 90 27 17 5 46 14 65 18 19 4 60 18 90 30 114 44 136 52 160 57 14
3 34 12 45 19 11 8 25 14 32 14 11 0 47 15 178 75 42 19 177 85 195 95 8 5 22
11 30 14 8 4 29 15 45 25 17 11 50 31 75 44 25 14 61 34 80 46 19 11 42 24 50
28 19 9 323 213 330 222 3 3 21 17 40 30 62 44 259 211 387 329 51 47 143 141
205 210 62 68 118 130 123 136 16 17 126 154 157 195 15 20 38 49 50 65 13 16
27 37 33 47 5 9 46 70 90 135 88 131 87 130 129 206 16 29 36 64 43 78 8 14
23 39 33 55 11 17 22 37 26 45 3 8 10 22 15 30 8 13 16 31 50 105 5 11 13 27
18 35 4 8 15 32 25 53 38 88 47 109 62 144 9 21 23 51 30 66 8 16 14 36 14 46
0 9 4 21 9 26 5 6 14 26 19 45 13 44 31 95 49 137 7 17 13 37 13 44 0 7 6 31
14 54 8 22 21 67 31 100 9 33 23 81 31 106 8 26 14 58 14 72 0 14 5 38 11 54
6 15 15 53 19 83 9 62 26 168 41 251 12 74 12 489 -1 489 -5 0 -14 -19 -20
-42z"/>
<path d="M30 4118 c0 -116 4 -237 9 -267 12 -69 30 -179 41 -246 13 -85 34
-173 75 -320 31 -108 44 -149 70 -225 15 -41 30 -90 35 -109 5 -18 13 -38 19
-44 6 -6 11 -19 11 -28 0 -10 6 -30 14 -46 7 -15 21 -45 30 -66 17 -42 39 -91
61 -139 19 -43 84 -179 95 -198 5 -8 11 -22 14 -30 4 -8 15 -28 25 -45 11 -16
31 -51 44 -76 57 -104 73 -130 156 -252 47 -71 91 -136 96 -145 18 -29 98
-137 109 -147 6 -5 27 -30 46 -55 97 -127 314 -361 445 -481 133 -122 157
-143 230 -199 39 -30 75 -60 80 -66 10 -11 117 -91 147 -109 8 -5 69 -46 134
-90 66 -44 126 -83 134 -88 8 -4 38 -21 65 -38 28 -16 64 -37 80 -45 17 -8 44
-23 60 -34 17 -11 37 -23 45 -26 26 -11 204 -96 220 -105 8 -5 22 -12 30 -15
8 -3 29 -12 45 -19 17 -7 47 -20 68 -29 20 -9 52 -22 70 -30 17 -8 41 -16 52
-19 11 -3 45 -15 75 -27 113 -43 295 -99 435 -133 33 -8 83 -21 110 -27 28 -7
73 -16 100 -20 79 -12 185 -30 246 -40 66 -12 476 -13 483 -2 9 14 -186 66
-369 97 -247 43 -374 66 -410 76 -22 6 -65 16 -95 24 -541 135 -1043 361
-1486 670 -265 185 -616 503 -824 748 -516 607 -864 1365 -996 2172 -40 249
-99 505 -116 505 -4 0 -8 -95 -8 -212z"/>
</g>
</svg>
